<svg id="Layer_1" data-name="Layer 1" xmlns="http://www.w3.org/2000/svg" viewBox="0 0 283.46 141.73"><defs><style>.cls-1{fill:#fff;}.cls-2{fill:#d31245;}.cls-3{fill:#f79239;}</style></defs><path class="cls-1" d="M50.19,64.45a2.12,2.12,0,0,0,0-3l-6.52-6.52,1.65-1.66,6.53,6.53a4.45,4.45,0,0,1,0,6.3l-.77.76L49.44,65.2Z"/><path class="cls-1" d="M26.58,61.44a2.12,2.12,0,0,0,0,3L33.11,71l-1.65,1.65-6.53-6.53a4.44,4.44,0,0,1,0-6.29l4.38-4.38L31,57.06Z"/><path class="cls-1" d="M36.89,74.75a2.14,2.14,0,0,0,3,0l6.51-6.51L48,69.89l-6.5,6.51a4.45,4.45,0,0,1-6.3,0l-.75-.75L36.14,74Z"/><path class="cls-1" d="M39.88,51.13a2.11,2.11,0,0,0-3,0l-6.51,6.52L28.73,56l6.51-6.52a4.45,4.45,0,0,1,6.3,0l4.68,4.69-1.65,1.65Z"/><path class="cls-1" d="M70.94,64.44a2.12,2.12,0,0,0,0-3l-9.79-9.78L62.81,50l9.78,9.78a4.45,4.45,0,0,1,0,6.3L67.87,70.8l-1.65-1.64Z"/><path class="cls-1" d="M47.32,61.44a2.13,2.13,0,0,0,0,3L53.85,71,52.2,72.62l-6.53-6.53a4.46,4.46,0,0,1,0-6.3l.76-.75,1.64,1.64Z"/><path class="cls-1" d="M57.64,74.75a2.12,2.12,0,0,0,3,0l6.51-6.51,1.65,1.65L62.28,76.4a4.44,4.44,0,0,1-6.3,0l-.74-.74L56.89,74Z"/><path class="cls-1" d="M60.63,51.14a2.12,2.12,0,0,0-3,0l-6.52,6.52L49.47,56,56,49.48a4.45,4.45,0,0,1,6.3,0l.74.75-1.64,1.65Z"/><path class="cls-1" d="M50.31,85.07a2.12,2.12,0,0,0,0-3l-6.52-6.52,1.65-1.66L52,80.43a4.44,4.44,0,0,1,0,6.29l-.76.76-1.65-1.65Z"/><path class="cls-1" d="M26.68,82.07a2.13,2.13,0,0,0,0,3l6.52,6.53-1.64,1.65L25,86.72a4.44,4.44,0,0,1,0-6.29l4.14-4.14,1.64,1.65Z"/><path class="cls-1" d="M37,95.39a2.12,2.12,0,0,0,3,0l6.52-6.52,1.65,1.65L41.64,97a4.44,4.44,0,0,1-6.3,0l-4.6-4.6,1.65-1.65Z"/><path class="cls-1" d="M40,71.76a2.12,2.12,0,0,0-3,0l-6.52,6.51-1.64-1.64,6.5-6.51a4.47,4.47,0,0,1,6.31,0l.74.74-1.65,1.65Z"/><path class="cls-1" d="M71,85.21a2.13,2.13,0,0,0,0-3l-6.53-6.53L66.09,74l6.52,6.53a4.44,4.44,0,0,1,0,6.29L68,91.46l-1.65-1.65Z"/><path class="cls-1" d="M47.34,82.2a2.13,2.13,0,0,0,0,3l6.53,6.53-1.65,1.65-6.53-6.53a4.42,4.42,0,0,1,0-6.29l.76-.77,1.64,1.65Z"/><path class="cls-1" d="M57.65,95.51a2.13,2.13,0,0,0,3,0L67.16,89l1.65,1.64L62.3,97.16a4.45,4.45,0,0,1-6.3,0l-4.24-4.24,1.64-1.65Z"/><path class="cls-1" d="M60.64,71.89a2.12,2.12,0,0,0-3,0L51.13,78.4l-1.64-1.65L56,70.24a4.47,4.47,0,0,1,6.31,0l.75.75-1.66,1.65Z"/><path class="cls-1" d="M82.61,76V72.26l10.19-19H83V49.05H99.23v3.83L89.08,71.7H99.79V76Z"/><path class="cls-1" d="M110.89,76.46c-5.51,0-8.83-2.68-8.83-10s3.72-10.87,9.67-10.87c5.52,0,8.83,2.68,8.83,10S116.85,76.46,110.89,76.46Zm.36-17.1c-2.35,0-3.91,1.63-3.91,6.19,0,5.63,1.39,7.11,4,7.11,2.36,0,3.92-1.64,3.92-6.19C115.29,60.83,113.85,59.36,111.25,59.36Z"/><path class="cls-1" d="M134.59,60.55a6.09,6.09,0,0,0-1.76-.28c-1.12,0-2.08.76-3.88,3V76H123.8V56H128l.4,3.12c2-2.68,3.4-3.52,4.84-3.52a4.61,4.61,0,0,1,2,.44Z"/><path class="cls-1" d="M145.65,83.29a18.91,18.91,0,0,1-7.11-1.6l.39-2.88c7.84,1.32,10.11.84,10.11-2.71V73.74a8.63,8.63,0,0,1-5.07,2c-4.59,0-7-4.24-7-9.35,0-7.52,4.4-10.83,10.35-10.83a33.43,33.43,0,0,1,6.91.84V75.26C154.2,81.69,150.37,83.29,145.65,83.29ZM149,59.63a8.46,8.46,0,0,0-2.47-.4c-2.56,0-4.36,2.2-4.36,6.4s1.28,6.27,3.32,6.27A6.32,6.32,0,0,0,149,70.22Z"/><path class="cls-1" d="M167.22,76.3a21.66,21.66,0,0,1-5-.56v-28h2.32V58.48A9,9,0,0,1,170.18,56c3.84,0,6.56,3.92,6.56,9.43C176.74,73.18,172.5,76.3,167.22,76.3Zm2.36-18.42a8.85,8.85,0,0,0-5.07,2.55V74a11,11,0,0,0,3.39.52c3.56,0,6.4-2.76,6.4-8.47C174.3,61.31,172.62,57.88,169.58,57.88Z"/><path class="cls-1" d="M181.93,66.31v.44c0,5.51,2.08,7.71,5.87,7.71a13,13,0,0,0,5.55-1.28l.52,1.48a15.1,15.1,0,0,1-6.71,1.64c-4.59,0-7.67-2.64-7.67-9.55S182.33,56,187.24,56c4.44,0,7.07,3,6.67,10.27Zm9.67-1.84c0-4.12-1.44-6.67-4.6-6.67s-4.87,3.19-5.07,6.79h9.67Z"/><path class="cls-1" d="M209.93,76l-.27-2.28c-1.84,1.44-3.76,2.56-5.92,2.56-3.75,0-6.43-3.76-6.43-9.39C197.31,59,201.74,56,206.5,56c1,0,2.24.08,3,.16V47.69h2.32V76Zm-.44-17.62a12.07,12.07,0,0,0-3.51-.56c-3.56,0-6.23,2.71-6.23,8.47,0,4.87,1.72,8.11,4.67,8.11a8.82,8.82,0,0,0,5.07-2.52Z"/><path class="cls-1" d="M227,58.72a4.66,4.66,0,0,0-1.45-.24c-1.27,0-2.59,1-4.83,3.75V76h-2.32V56.32h2l.24,3.72c2.4-3,3.84-4,5.15-4a3.18,3.18,0,0,1,1.52.36Z"/><path class="cls-1" d="M232.43,51.92c-1.32,0-1.56-.28-1.56-1.47s.24-1.48,1.56-1.48,1.48.24,1.48,1.48S233.71,51.92,232.43,51.92ZM231.23,76V56.32h2.32V76Z"/><path class="cls-1" d="M238.78,83.05l-1.32-.88a9.69,9.69,0,0,0,2.68-6.83v-19h2.31V74.58C242.45,78.41,241.54,80.77,238.78,83.05Zm2.56-31.13c-1.32,0-1.56-.28-1.56-1.47S240,49,241.34,49s1.47.24,1.47,1.48S242.62,51.92,241.34,51.92Z"/><path class="cls-1" d="M257.72,50a6.85,6.85,0,0,0-2.84-.76c-2.16,0-3,1.2-3,3.59v3.52h4.72V58h-4.72V76h-2.31V58h-3.48V56.32h3.48V53c0-3.39,1.56-5.55,4.79-5.55a8.16,8.16,0,0,1,4,1.12Z"/><path class="cls-1" d="M89.23,96.75c-.19-.78-.42-1.65-.65-2.53H84c-.21.81-.41,1.69-.59,2.53h-1c.86-3.44,2.08-7.6,3.31-11.17h1.18c1.39,4,2.49,7.6,3.4,11.17Zm-3-10.11c-.63,2-1.37,4.47-2,6.77h4.12C87.72,91.21,87,88.91,86.21,86.64Z"/><path class="cls-1" d="M98,96.75h-1c0-1.41,0-3.18,0-4.42,0-2.2-.62-3.08-1.74-3.08a3.88,3.88,0,0,0-2.24,1.1v6.4h-.95V88.59H93l.09,1a4,4,0,0,1,2.62-1.12c1.41,0,2.37.9,2.37,3.59C98.07,93.21,98,95.2,98,96.75Z"/><path class="cls-1" d="M103.08,96.87c-1.32,0-1.8-.62-1.8-2.22V89.3H99.84v-.71h1.44c.12-.73.22-1.47.29-2.32h.67v2.32h2.37v.71h-2.37v5.12c0,1.24.19,1.69,1.08,1.69a4.12,4.12,0,0,0,1.36-.3l.15.59A4.18,4.18,0,0,1,103.08,96.87Z"/><path class="cls-1" d="M114.1,96.75h-.95l-1.91-6.27-.14-.57h0l-.09.5-1.68,6.34h-1l-2.53-8.16h1l1.66,5.48.41,1.46h0l.28-1.18,1.54-5.76h.93l1.78,5.78.33,1.14h0a46.64,46.64,0,0,0,1.82-6.92h1A46.22,46.22,0,0,1,114.1,96.75Z"/><path class="cls-1" d="M119.09,92.73v.18c0,2.29.86,3.2,2.43,3.2a5.46,5.46,0,0,0,2.3-.53l.22.61a6.28,6.28,0,0,1-2.79.68c-1.9,0-3.17-1.1-3.17-4s1.17-4.43,3.21-4.43c1.83,0,2.93,1.25,2.76,4.25Zm4-.76c0-1.71-.59-2.76-1.9-2.76s-2,1.32-2.1,2.81h4Z"/><path class="cls-1" d="M130.27,89.58a2,2,0,0,0-.6-.1c-.53,0-1.08.43-2,1.56v5.71h-1V88.59h.8l.11,1.54c1-1.22,1.59-1.64,2.13-1.64a1.41,1.41,0,0,1,.63.15Z"/><path class="cls-1" d="M134.49,96.87a7.53,7.53,0,0,1-1.16-.07v2.82h-1v-11h.78l.13,1a3.85,3.85,0,0,1,2.4-1.06c1.61,0,2.72,1.58,2.72,3.88C138.4,95.51,136.66,96.87,134.49,96.87Zm.95-7.63a3.68,3.68,0,0,0-2.11,1.05v5.6a4.4,4.4,0,0,0,1.42.23c1.48,0,2.63-1.12,2.63-3.52C137.38,90.66,136.67,89.24,135.44,89.24Z"/><path class="cls-1" d="M141.21,92.73v.18c0,2.29.87,3.2,2.44,3.2a5.49,5.49,0,0,0,2.3-.53l.21.61a6.27,6.27,0,0,1-2.78.68c-1.9,0-3.18-1.1-3.18-4s1.18-4.43,3.22-4.43c1.83,0,2.93,1.25,2.76,4.25Zm4-.76c0-1.71-.6-2.76-1.9-2.76s-2,1.32-2.11,2.81h4Z"/><path class="cls-1" d="M154.67,96.75h-.94c0-1.41,0-3.18,0-4.42,0-2.2-.62-3.08-1.74-3.08a3.88,3.88,0,0,0-2.24,1.1v6.4h-1V88.59h.81l.1,1a4,4,0,0,1,2.62-1.12c1.41,0,2.37.9,2.37,3.59C154.73,93.21,154.67,95.2,154.67,96.75Z"/><rect class="cls-2" x="215.63" y="96.4" width="45.33" height="45.34"/><path class="cls-1" d="M244.23,130.6l-1.81-5.14H234l-1.81,5.14h-4.94l8.82-23.06h4.48l8.76,23.06Zm-4.87-13.7c-.46-1.35-.93-2.73-1.16-3.59-.23.86-.69,2.24-1.15,3.59l-1.48,4.18h5.27Z"/><path class="cls-3" d="M226.28,119.71a.62.62,0,0,1-.78.39l-6.43-2.16a.62.62,0,0,1-.39-.78l.54-1.59a.62.62,0,0,1,.78-.39l6.43,2.16a.62.62,0,0,1,.39.78Z"/><path class="cls-3" d="M225.93,124.76a.62.62,0,0,1-.39.78L221,127.17a.62.62,0,0,1-.78-.39l-.54-1.6a.63.63,0,0,1,.4-.78l4.57-1.62a.61.61,0,0,1,.78.38Z"/><path class="cls-3" d="M224.67,110.06a.61.61,0,0,0-.11.86l2.9,3.9a.61.61,0,0,0,.86.11l1.34-1a.63.63,0,0,0,.11-.86l-2.91-3.9A.61.61,0,0,0,226,109Z"/><path class="cls-3" d="M250.21,119.71a.62.62,0,0,0,.78.39l6.43-2.16a.61.61,0,0,0,.39-.78l-.53-1.59a.63.63,0,0,0-.79-.39l-6.43,2.16a.61.61,0,0,0-.38.78Z"/><path class="cls-3" d="M250.56,124.76a.62.62,0,0,0,.39.78l4.58,1.63a.62.62,0,0,0,.78-.39l.53-1.6a.61.61,0,0,0-.38-.78l-4.59-1.62a.61.61,0,0,0-.78.38Z"/><path class="cls-3" d="M251.82,110.06a.61.61,0,0,1,.11.86l-2.9,3.9a.62.62,0,0,1-.87.11l-1.32-1a.59.59,0,0,1-.11-.86l2.9-3.9a.61.61,0,0,1,.86-.11Z"/></svg>