<?xml version="1.0" encoding="utf-8"?>
<!-- Generator: Adobe Illustrator 24.0.1, SVG Export Plug-In . SVG Version: 6.00 Build 0)  -->
<svg version="1.1" id="Layer_1" xmlns="http://www.w3.org/2000/svg" xmlns:xlink="http://www.w3.org/1999/xlink" x="0px" y="0px"
	 viewBox="0 0 177 39.9" style="enable-background:new 0 0 177 39.9;" xml:space="preserve">
<style type="text/css">
	.st0{fill-rule:evenodd;clip-rule:evenodd;fill:#FFFFFF;}
</style>
<title>Artboard 1</title>
<g id="Icons">
	<g id="Logo">
		<g id="Zorgbedrijf">
			<path id="Fill-1" class="st0" d="M20.1,14.5c0.5-0.5,0.5-1.2,0-1.7c0,0,0,0,0,0l-3.8-3.7l0.9-0.9l3.8,3.7c1,1,1,2.6,0,3.6
				c0,0,0,0,0,0l-0.4,0.4L19.7,15L20.1,14.5z"/>
			<g id="Group-5">
				<g>
					<path id="Fill-3" class="st0" d="M6.5,12.8C6,13.3,6,14,6.5,14.5c0,0,0,0,0,0l3.8,3.7l-1,0.9l-3.8-3.7c-1-1-1-2.6,0-3.6
						c0,0,0,0,0,0L8,9.4l1,0.9L6.5,12.8z"/>
				</g>
			</g>
			<path id="Fill-6" class="st0" d="M12.4,20.4c0.5,0.5,1.3,0.5,1.7,0l3.8-3.7l1,0.9l-3.8,3.7c-1,1-2.6,1-3.6,0l-0.4-0.4l1-0.9
				L12.4,20.4z"/>
			<path id="Fill-8" class="st0" d="M14.2,6.9c-0.5-0.5-1.3-0.5-1.7,0l-3.8,3.8l-1-1l3.8-3.7c1-1,2.6-1,3.6,0l2.7,2.7l-1,0.9
				L14.2,6.9z"/>
			<path id="Fill-10" class="st0" d="M32.2,14.5c0.5-0.5,0.5-1.2,0-1.7l-5.7-5.6l1-0.9l5.7,5.6c1,1,1,2.6,0,3.6c0,0,0,0,0,0
				l-2.7,2.7l-1-1L32.2,14.5z"/>
			<path id="Fill-12" class="st0" d="M18.5,12.8c-0.5,0.5-0.5,1.2,0,1.7c0,0,0,0,0,0l3.8,3.7l-1,1l-3.8-3.7c-1-1-1-2.6,0-3.6
				c0,0,0,0,0,0l0.4-0.4l1,0.9L18.5,12.8z"/>
			<path id="Fill-14" class="st0" d="M24.4,20.4c0.5,0.5,1.3,0.5,1.7,0l3.8-3.7l1,0.9l-3.8,3.7c-1,1-2.6,1-3.6,0l-0.4-0.4l1-0.9
				L24.4,20.4z"/>
			<path id="Fill-16" class="st0" d="M26.2,6.9c-0.5-0.5-1.3-0.5-1.7,0l-3.8,3.8l-1-1l3.8-3.7c1-1,2.6-1,3.6,0l0.4,0.4l-1,0.9
				L26.2,6.9z"/>
			<path id="Fill-18" class="st0" d="M20.2,26.4c0.5-0.5,0.5-1.2,0-1.7c0,0,0,0,0,0l-3.8-3.7l1-1l3.8,3.8c1,1,1,2.6,0,3.6
				c0,0,0,0,0,0l-0.4,0.4l-1-1L20.2,26.4z"/>
			<path id="Fill-20" class="st0" d="M6.5,24.6c-0.5,0.5-0.5,1.2,0,1.7c0,0,0,0,0,0l3.8,3.7l-1,0.9l-3.8-3.7c-1-1-1-2.6,0-3.6
				c0,0,0,0,0,0L8,21.3l0.9,0.9L6.5,24.6z"/>
			<path id="Fill-22" class="st0" d="M12.5,32.3c0.5,0.5,1.2,0.5,1.7,0l3.8-3.7l1,1l-3.8,3.7c-1,1-2.6,1-3.6,0c0,0,0,0,0,0l-2.6-2.7
				l1-0.9L12.5,32.3z"/>
			<path id="Fill-24" class="st0" d="M14.2,18.7c-0.5-0.5-1.3-0.5-1.7,0l-3.7,3.7l-1-1l3.8-3.7c1-1,2.6-1,3.6,0l0.4,0.4l-1,1
				L14.2,18.7z"/>
			<path id="Fill-26" class="st0" d="M32.2,26.4c0.5-0.5,0.5-1.2,0-1.7L28.4,21l1-0.9l3.8,3.8c1,1,1,2.6,0,3.6c0,0,0,0,0,0L30.4,30
				l-1-0.9L32.2,26.4z"/>
			<path id="Fill-28" class="st0" d="M18.5,24.7c-0.5,0.5-0.5,1.2,0,1.7c0,0,0,0,0,0l3.8,3.7l-1,1l-3.8-3.7c-1-1-1-2.6,0-3.6
				c0,0,0,0,0,0l0.4-0.4l1,0.9L18.5,24.7z"/>
			<path id="Fill-30" class="st0" d="M24.5,32.4c0.5,0.5,1.3,0.5,1.7,0l3.8-3.7l1,0.9l-3.8,3.7c-1,1-2.6,1-3.6,0L21,30.9l1-0.9
				L24.5,32.4z"/>
			<path id="Fill-32" class="st0" d="M26.2,18.8c-0.5-0.5-1.3-0.5-1.7,0l-3.8,3.7l-1-1l3.8-3.7c1-1,2.6-1,3.6,0l0.4,0.4l-1,1
				L26.2,18.8z"/>
			<polygon id="Fill-34" class="st0" points="38.9,21.2 38.9,19 44.8,8.1 39.1,8.1 39.1,5.7 48.5,5.7 48.5,7.9 42.7,18.7 48.9,18.7 
				48.9,21.2 			"/>
			<path id="Fill-36" class="st0" d="M55.5,11.6c-1.4,0-2.3,0.9-2.3,3.6c0,3.2,0.8,4.1,2.3,4.1c1.4,0,2.3-0.9,2.3-3.6
				C57.8,12.5,57,11.6,55.5,11.6 M55.3,21.4c-3.2,0-5.1-1.5-5.1-5.8s2.2-6.2,5.6-6.2c3.2,0,5.1,1.5,5.1,5.7S58.7,21.4,55.3,21.4"/>
			<path id="Fill-38" class="st0" d="M69,12.3c-0.3-0.1-0.7-0.2-1-0.2c-0.6,0-1.2,0.4-2.2,1.7v7.3h-3V9.7h2.5l0.2,1.8
				c1.2-1.5,2-2,2.8-2c0.4,0,0.8,0.1,1.1,0.3L69,12.3z"/>
			<path id="Fill-40" class="st0" d="M77.4,11.8c-0.5-0.2-0.9-0.2-1.4-0.2c-1.5,0-2.5,1.3-2.5,3.7s0.8,3.6,1.9,3.6
				c0.8-0.1,1.5-0.4,2-1V11.8z M75.4,25.4c-1.4,0-2.8-0.4-4.1-0.9l0.2-1.7c4.5,0.8,5.9,0.5,5.9-1.5v-1.4c-0.8,0.7-1.9,1.1-2.9,1.1
				c-2.7,0-4.1-2.4-4.1-5.4c0-4.3,2.6-6.2,6-6.2c1.3,0,2.7,0.2,4,0.4v10.8C80.4,24.4,78.1,25.4,75.4,25.4z"/>
			<path id="Fill-42" class="st0" d="M89.3,10.8c-1.1,0.2-2.1,0.7-2.9,1.5V20c0.6,0.2,1.3,0.3,2,0.3c2.1,0,3.7-1.6,3.7-4.9
				C92,12.7,91,10.8,89.3,10.8 M87.9,21.3c-1,0-2-0.1-2.9-0.3V4.9h1.3v6.2c0.9-0.8,2.1-1.3,3.3-1.4c2.2,0,3.8,2.2,3.8,5.4
				C93.4,19.5,90.9,21.3,87.9,21.3"/>
			<path id="Fill-44" class="st0" d="M102,14.5c0-2.4-0.8-3.9-2.7-3.9s-2.8,1.8-2.9,3.9H102z M96.4,15.6v0.3c0,3.2,1.2,4.4,3.4,4.4
				c1.1,0,2.2-0.3,3.2-0.7l0.3,0.9c-1.2,0.6-2.5,0.9-3.9,0.9c-2.7,0-4.4-1.5-4.4-5.5s1.6-6.2,4.5-6.2c2.6,0,4.1,1.7,3.9,5.9
				L96.4,15.6z"/>
			<path id="Fill-46" class="st0" d="M112.4,11.1c-0.7-0.2-1.3-0.3-2-0.3c-2.1,0-3.6,1.5-3.6,4.9c0,2.8,1,4.6,2.7,4.6
				c1.1-0.1,2.1-0.7,2.9-1.4V11.1z M112.6,21.2l-0.2-1.3c-0.9,0.9-2.2,1.4-3.4,1.5c-2.2,0-3.7-2.2-3.7-5.4c0-4.5,2.6-6.2,5.3-6.2
				c0.6,0,1.3,0,1.7,0.1V4.9h1.3v16.2L112.6,21.2z"/>
			<path id="Fill-48" class="st0" d="M122.5,11.2c-0.3-0.1-0.5-0.1-0.8-0.1c-0.8,0-1.5,0.6-2.8,2.1v7.9h-1.3V9.9h1.1l0.1,2.1
				c1.4-1.7,2.2-2.3,3-2.3c0.3,0,0.6,0.1,0.9,0.2L122.5,11.2z"/>
			<g>
				<path id="Fill-50" class="st0" d="M124.9,21.2h1.4V9.9H125L124.9,21.2z M125.6,7.3c-0.8,0-0.9-0.2-0.9-0.9s0.1-0.8,0.9-0.8
					c0.8,0,0.9,0.1,0.9,0.8S126.4,7.3,125.6,7.3z"/>
			</g>
			<g>
				<path id="Fill-52" class="st0" d="M130.8,7.3c-0.8,0-0.9-0.2-0.9-0.9s0.1-0.8,0.9-0.8c0.8,0,0.9,0.1,0.9,0.8
					S131.5,7.3,130.8,7.3 M129.3,25.2l-0.8-0.5c1-1.1,1.6-2.5,1.5-3.9V9.9h1.3v10.5C131.4,22.5,130.9,23.9,129.3,25.2"/>
			</g>
			<g>
				<path id="Fill-53" class="st0" d="M140.3,6.2c-0.5-0.3-1.1-0.4-1.6-0.4c-1.2,0-1.8,0.7-1.8,2.1v2h2.7v1h-2.7v10.3h-1.3V10.9h-2
					v-1h2v-2c0-1.9,0.9-3.2,2.7-3.2c0.8,0,1.6,0.2,2.3,0.6L140.3,6.2z"/>
			</g>
			<g>
				<path id="Fill-54" class="st0" d="M41,27.3c-0.4,1.2-0.8,2.6-1.1,3.9h2.4C41.9,29.9,41.5,28.5,41,27.3z M42.7,33.1
					c-0.1-0.4-0.2-1-0.4-1.5h-2.6c-0.1,0.5-0.2,1-0.3,1.5h-0.6c0.5-2,1.2-4.4,1.9-6.4h0.7c0.8,2.3,1.4,4.4,2,6.4H42.7z"/>
			</g>
			<g>
				<path id="Fill-55" class="st0" d="M47.8,33.1h-0.5c0-0.8,0-1.8,0-2.5c0-1.3-0.4-1.8-1-1.8c-0.5,0.1-0.9,0.3-1.3,0.6v3.7h-0.6
					v-4.7h0.5L45,29c0.4-0.4,1-0.6,1.5-0.6c0.8,0,1.4,0.5,1.4,2.1C47.9,31,47.9,32.2,47.8,33.1"/>
			</g>
			<g>
				<path id="Fill-56" class="st0" d="M50.8,33.1c-0.8,0-1-0.4-1-1.3v-3.1h-0.8v-0.4h0.8c0.1-0.4,0.1-0.8,0.2-1.3h0.4v1.3h1.4v0.4
					h-1.4v2.9c0,0.7,0.1,1,0.6,1c0.3,0,0.5-0.1,0.8-0.2l0.1,0.3C51.4,33,51.1,33.1,50.8,33.1"/>
			</g>
			<g>
				<path id="Fill-57" class="st0" d="M57.1,33.1h-0.5l-1.1-3.6l-0.1-0.3l0,0l0,0.3l-1,3.6h-0.6l-1.5-4.7h0.6l1,3.1l0.2,0.8l0,0
					l0.2-0.7l0.9-3.3h0.5l1,3.3l0.2,0.7l0,0c0.5-1.3,0.8-2.6,1.1-4h0.6C58.2,30,57.7,31.6,57.1,33.1"/>
			</g>
			<g>
				<path id="Fill-58" class="st0" d="M62.3,30.3c0-1-0.3-1.6-1.1-1.6s-1.2,0.8-1.2,1.6L62.3,30.3L62.3,30.3z M60,30.8v0.1
					c0,1.3,0.5,1.8,1.4,1.8c0.5,0,0.9-0.1,1.3-0.3l0.1,0.3c-0.5,0.3-1,0.4-1.6,0.4c-1.1,0-1.8-0.6-1.8-2.3c0-1.6,0.7-2.5,1.9-2.5
					c1.2,0,1.7,0.7,1.6,2.4H60z"/>
			</g>
			<g>
				<path id="Fill-59" class="st0" d="M66.5,29c-0.1,0-0.2-0.1-0.3-0.1c-0.3,0-0.6,0.2-1.2,0.9v3.3h-0.5v-4.7h0.5l0.1,0.9
					c0.6-0.7,0.9-0.9,1.2-0.9c0.1,0,0.3,0,0.4,0.1L66.5,29z"/>
			</g>
			<g>
				<path id="Fill-60" class="st0" d="M69.5,28.8c-0.5,0.1-0.9,0.3-1.2,0.6v3.2c0.3,0.1,0.5,0.1,0.8,0.1c0.9,0,1.5-0.6,1.5-2
					C70.6,29.6,70.2,28.8,69.5,28.8 M69,33.1c-0.2,0-0.4,0-0.7,0v1.6h-0.6v-6.4h0.4l0.1,0.5c0.4-0.4,0.9-0.6,1.4-0.6
					c0.9,0,1.5,0.9,1.5,2.2C71.2,32.4,70.2,33.1,69,33.1"/>
			</g>
			<g>
				<path id="Fill-61" class="st0" d="M75.2,30.3c0-1-0.3-1.6-1.1-1.6s-1.2,0.8-1.2,1.6L75.2,30.3L75.2,30.3z M72.8,30.8v0.1
					c0,1.3,0.5,1.8,1.4,1.8c0.5,0,0.9-0.1,1.3-0.3l0.1,0.3c-0.5,0.3-1,0.4-1.6,0.4c-1.1,0-1.8-0.6-1.8-2.3c0-1.6,0.7-2.5,1.9-2.5
					c1.2,0,1.7,0.7,1.6,2.4H72.8z"/>
			</g>
			<g>
				<path id="Fill-62" class="st0" d="M80.6,33.1h-0.5c0-0.8,0-1.8,0-2.5c0-1.3-0.3-1.8-1-1.8c-0.5,0.1-0.9,0.3-1.3,0.6v3.7h-0.6
					v-4.7h0.5l0.1,0.6c0.4-0.4,1-0.6,1.5-0.6c0.8,0,1.4,0.5,1.4,2.1C80.7,31,80.7,32.2,80.6,33.1"/>
			</g>
		</g>
	</g>
</g>
</svg>
